# xmcd CD database file
#
# Track frame offsets:
#	150
#	21488
#	45410
#	69967
#	80250
#	97887
#	131928
#	149298
#	181464
#	204313
#	239545
#	285709
#
# Disc length: 4204 seconds
#
# Revision: 0
# Processed by: cddbd v1.4PL0 Copyright (c) Steve Scherf et al.
# Submitted via: CDex 1.50beta9
#
DISCID=a8106a0c
DTITLE=Ben harper - Amphitea, Angers, FRANCE March 23 2000 - #1
DYEAR=1900
DGENRE=Blues
TTITLE0=burn one down
TTITLE1=jah work
TTITLE2=alone
TTITLE3=#3
TTITLE4=I want to be ready
TTITLE5=faded
TTITLE6=burn to shine
TTITLE7=ground on down
TTITLE8=less
TTITLE9=opression - get up stand up
TTITLE10=forgiven
TTITLE11=steal my kisses
EXTD=
EXTT0=
EXTT1=
EXTT2=
EXTT3=
EXTT4=
EXTT5=
EXTT6=
EXTT7=
EXTT8=
EXTT9=
EXTT10=
EXTT11=
PLAYORDER=
